<svg width="417" height="96" viewBox="0 0 417 96" fill="none" xmlns="http://www.w3.org/2000/svg">
<path d="M4.98845 61.732V66.0969H30.5542V61.732H4.98845Z" fill="#FFA600"/>
<path d="M6.23556 45.5196V49.8845H31.8014V45.5196H6.23556Z" fill="#FFA600"/>
<path d="M33.0485 34.2956H31.8014L32.9099 35.5427L33.0485 34.2956Z" fill="#FFA600"/>
<path fill-rule="evenodd" clip-rule="evenodd" d="M8.10623 29.9307H3.11778L0 66.0969H4.98845V61.732L6.23556 49.8845V45.5196L7.48267 34.2956H31.8014H33.0485L32.9099 35.5427L31.8014 45.5196V49.8845L30.5542 61.732V66.0969H34.9191L37.4134 34.2956L33.672 29.9307H8.10623Z" fill="#FFA600"/>
<path d="M41.8547 66.0968L44.349 30.1301H48.3896L45.8954 62.0562H77.7716V66.0968H41.8547Z" fill="black"/>
<path d="M81.1785 66.0968L83.6727 30.18H87.7633L85.269 66.0968H81.1785Z" fill="black"/>
<path d="M96.7857 66.0968L99.28 34.2207H92.0467V30.18H127.964V34.2207H103.321L100.826 66.0968H96.7857Z" fill="black"/>
<path d="M128.951 66.0968V60.5597L162.772 34.2207H131.445V30.18H167.362V35.7172L133.54 62.0562H164.868V66.0968H128.951Z" fill="black"/>
<path fill-rule="evenodd" clip-rule="evenodd" d="M260.244 55.8707L267.727 65.8475H273.064V65.7976L265.557 55.8707C265.518 55.8188 261.999 55.849 260.244 55.8707ZM257.7 52.4785H242.685L241.438 65.8475H237.397L239.891 29.9806H269.822C270.919 29.9806 271.917 30.2633 272.815 30.8286C273.746 31.3607 274.478 32.0757 275.01 32.9736C275.542 33.8716 275.808 34.8693 275.808 35.9667L274.561 46.4923C274.561 47.5898 274.295 48.5875 273.763 49.4854C273.231 50.3833 272.499 51.115 271.568 51.6803C270.67 52.2124 269.672 52.4785 268.575 52.4785H262.991H257.7ZM268.575 48.388H244.63C244.098 48.388 243.633 48.205 243.233 47.8392C242.868 47.4734 242.685 47.0244 242.685 46.4923L243.932 35.9667C243.932 35.4346 244.115 34.9857 244.481 34.6198C244.88 34.2208 245.345 34.0212 245.877 34.0212H269.822C270.354 34.0212 270.803 34.2208 271.169 34.6198C271.568 34.9857 271.767 35.4346 271.767 35.9667L270.52 46.4923C270.52 47.0244 270.321 47.4734 269.922 47.8392C269.556 48.205 269.107 48.388 268.575 48.388Z" fill="black"/>
<path fill-rule="evenodd" clip-rule="evenodd" d="M301.409 55.8707L308.891 65.8475H314.229V65.7976L306.721 55.8707H301.409ZM298.864 52.4785H283.849L282.602 65.8475H278.561L281.056 29.9806H310.986C312.084 29.9806 313.081 30.2633 313.979 30.8286C314.911 31.3607 315.642 32.0757 316.174 32.9736C316.706 33.8716 316.972 34.8693 316.972 35.9667L315.725 46.4923C315.725 47.5898 315.459 48.5875 314.927 49.4854C314.395 50.3833 313.663 51.115 312.732 51.6803C311.834 52.2124 310.837 52.4785 309.739 52.4785H304.156H298.864ZM309.739 48.388H285.795C285.263 48.388 284.797 48.205 284.398 47.8392C284.032 47.4734 283.849 47.0244 283.849 46.4923L285.096 35.9667C285.096 35.4346 285.279 34.9857 285.645 34.6198C286.044 34.2208 286.51 34.0212 287.042 34.0212H310.986C311.518 34.0212 311.967 34.2208 312.333 34.6198C312.732 34.9857 312.932 35.4346 312.932 35.9667L311.685 46.4923C311.685 47.0244 311.485 47.4734 311.086 47.8392C310.72 48.205 310.271 48.388 309.739 48.388Z" fill="black"/>
<path fill-rule="evenodd" clip-rule="evenodd" d="M325.612 65.8475C324.515 65.8475 323.5 65.5815 322.569 65.0494C321.671 64.5173 320.956 63.8023 320.424 62.9043C319.892 61.9732 319.626 60.9588 319.626 59.8614L320.626 50.2587L322.918 48.388L324.667 50.2587L323.667 59.8614C323.667 60.3935 323.85 60.8591 324.215 61.2581C324.615 61.624 325.08 61.8069 325.612 61.8069H349.557C350.089 61.8069 350.538 61.624 350.904 61.2581C351.303 60.8591 351.502 60.3935 351.502 59.8614L352.438 50.8822L354.376 52.4785L356.449 51.1585L355.543 59.8614C355.543 60.9588 355.277 61.9732 354.745 62.9043C354.213 63.8023 353.481 64.5173 352.55 65.0494C351.652 65.5815 350.654 65.8475 349.557 65.8475H325.612ZM356.79 47.8891L358.037 35.9168C358.037 34.8194 357.771 33.8217 357.239 32.9238C356.707 31.9926 355.975 31.2609 355.044 30.7288C354.146 30.1967 353.148 29.9307 352.051 29.9307H328.106C327.009 29.9307 325.995 30.1967 325.063 30.7288C324.166 31.2609 323.451 31.9926 322.918 32.9238C322.386 33.8217 322.12 34.8194 322.12 35.9168L320.982 46.846L322.918 45.2702L325.022 46.846L326.161 35.9168C326.161 35.3847 326.344 34.9358 326.71 34.57C327.109 34.1709 327.574 33.9713 328.106 33.9713H352.051C352.583 33.9713 353.032 34.1709 353.398 34.57C353.797 34.9358 353.996 35.3847 353.996 35.9168L352.749 47.8891L354.774 49.6351L356.79 47.8891Z" fill="black"/>
<path fill-rule="evenodd" clip-rule="evenodd" d="M369.609 58.7639L361.119 29.9307H365.409L371.523 51.8799L369.609 58.7639ZM371.695 65.8475H375.186L388.855 35.1686L391.299 29.9307H386.41L373.44 58.7639L371.695 65.8475ZM390.548 41.1547L392.967 35.9168L399.331 58.7639L412.251 29.9307H416.64L401.076 65.8475H397.535L390.548 41.1547Z" fill="black"/>
<path d="M6.26591 22.7488C6.26591 23.0273 6.17782 23.2546 6.00163 23.4308C5.83113 23.607 5.60663 23.6951 5.32814 23.6951H1.96922C1.69074 23.6951 1.46056 23.607 1.27868 23.4308C1.1025 23.2546 1.0144 23.0273 1.0144 22.7488V19.3643H2.1994V22.6465H5.08091V19.4666L1.39804 15.0165C1.14228 14.7096 1.0144 14.3714 1.0144 14.002V11.2995C1.0144 11.021 1.1025 10.7937 1.27868 10.6175C1.46056 10.4413 1.69074 10.3532 1.96922 10.3532H5.32814C5.60663 10.3532 5.83113 10.4413 6.00163 10.6175C6.17782 10.7937 6.26591 11.021 6.26591 11.2995V14.4027H5.08091V11.4018H2.1994V14.2151L5.89933 18.6653C6.14372 18.9608 6.26591 19.2933 6.26591 19.6627V22.7488Z" fill="black"/>
<path d="M12.7451 23.6951H8.36311V10.3532H12.6939V11.4018H9.54811V16.3805H12.4126V17.4462H9.54811V22.6465H12.7451V23.6951Z" fill="black"/>
<path d="M19.9488 22.7488C19.9488 23.0273 19.8579 23.2546 19.676 23.4308C19.4942 23.607 19.264 23.6951 18.9855 23.6951H15.5498C15.2713 23.6951 15.044 23.607 14.8678 23.4308C14.6916 23.2546 14.6035 23.0273 14.6035 22.7488V11.2995C14.6035 11.021 14.6916 10.7937 14.8678 10.6175C15.044 10.4413 15.2713 10.3532 15.5498 10.3532H18.9855C19.264 10.3532 19.4942 10.4413 19.676 10.6175C19.8579 10.7937 19.9488 11.021 19.9488 11.2995V14.4027H18.7553V11.4018H15.7885V22.6465H18.7553V19.3643H19.9488V22.7488Z" fill="black"/>
<path d="M27.5533 22.7488C27.5533 23.0273 27.4624 23.2546 27.2805 23.4308C27.1043 23.607 26.877 23.6951 26.5985 23.6951H22.9667C22.6883 23.6951 22.4609 23.607 22.2847 23.4308C22.1085 23.2546 22.0204 23.0273 22.0204 22.7488V10.3532H23.2054V22.6465H26.3683V10.3532H27.5533V22.7488Z" fill="black"/>
<path d="M35.3709 23.6951H34.1262L31.6454 16.551L31.8074 16.3123H33.9216V11.4018H30.8781V23.6951H29.6931V10.3532H34.1603C34.4388 10.3532 34.6661 10.4413 34.8423 10.6175C35.0185 10.7937 35.1066 11.021 35.1066 11.2995V16.3635C35.1066 17.0057 34.6747 17.3268 33.8108 17.3268C33.7255 17.3268 33.6005 17.324 33.4357 17.3183C33.2708 17.3069 33.1515 17.3012 33.0776 17.3012C33.8449 19.4268 34.6093 21.5581 35.3709 23.6951Z" fill="black"/>
<path d="M41.5261 23.6951H37.1441V10.3532H41.4749V11.4018H38.3291V16.3805H41.1936V17.4462H38.3291V22.6465H41.5261V23.6951Z" fill="black"/>
<path d="M6.5643 87.2978H5.74588L2.18235 77.4853V87.2978H1.06556V73.9559H1.95217L5.4475 83.5979V73.9559H6.5643V87.2978Z" fill="black"/>
<path d="M13.0861 87.2978H8.70412V73.9559H13.0349V75.0045H9.88912V79.9832H12.7536V81.0489H9.88912V86.2492H13.0861V87.2978Z" fill="black"/>
<path d="M19.5396 75.0045H17.4765V87.2978H16.2915V75.0045H14.2114V73.9559H19.5396V75.0045Z" fill="black"/>
<path d="M28.9088 73.9559L27.0929 87.3319H26.1296L24.6803 77.2722C24.6746 77.096 24.6633 76.8346 24.6462 76.4879C24.6462 76.6698 24.6348 76.9312 24.6121 77.2722L23.1628 87.3319H22.1995L20.3836 73.9559H21.5601L22.6939 83.5808C22.6996 83.7968 22.711 84.1151 22.728 84.5357C22.7224 84.3197 22.7337 84.0014 22.7621 83.5808L24.1432 73.9559H25.1577L26.5303 83.5808C26.5416 83.7968 26.553 84.1151 26.5644 84.5357C26.5644 84.3197 26.5786 84.0014 26.607 83.5808L27.7408 73.9559H28.9088Z" fill="black"/>
<path d="M36.1296 86.3515C36.1296 86.63 36.0387 86.8573 35.8568 87.0335C35.6806 87.2097 35.4533 87.2978 35.1748 87.2978H31.4408C31.1623 87.2978 30.9349 87.2097 30.7588 87.0335C30.5826 86.8573 30.4945 86.63 30.4945 86.3515V74.9022C30.4945 74.6237 30.5826 74.3964 30.7588 74.2202C30.9349 74.044 31.1623 73.9559 31.4408 73.9559H35.1748C35.4533 73.9559 35.6806 74.044 35.8568 74.2202C36.0387 74.3964 36.1296 74.6237 36.1296 74.9022V86.3515ZM34.9446 86.2492V75.0045H31.6795V86.2492H34.9446Z" fill="black"/>
<path d="M43.9472 87.2978H42.7025L40.2217 80.1537L40.3837 79.915H42.4979V75.0045H39.4544V87.2978H38.2694V73.9559H42.7366C43.0151 73.9559 43.2425 74.044 43.4186 74.2202C43.5948 74.3964 43.6829 74.6237 43.6829 74.9022V79.9662C43.6829 80.6084 43.251 80.9295 42.3871 80.9295C42.3018 80.9295 42.1768 80.9267 42.012 80.921C41.8472 80.9096 41.7278 80.9039 41.6539 80.9039C42.4212 83.0295 43.1856 85.1608 43.9472 87.2978Z" fill="black"/>
<path d="M51.2874 87.2978H49.983L46.9054 80.8869V87.2978H45.7204V73.9559H46.9054V79.9491L49.7017 73.9559H50.989V74.0326L47.9711 80.3839L51.2874 87.2978Z" fill="black"/>
<path d="M53.6915 87.2978H52.5065V73.9559H53.6915V87.2978Z" fill="black"/>
<path d="M61.4153 87.2978H60.5969L57.0334 77.4853V87.2978H55.9166V73.9559H56.8032L60.2985 83.5979V73.9559H61.4153V87.2978Z" fill="black"/>
<path d="M68.9516 86.3515C68.9516 86.63 68.8635 86.8573 68.6873 87.0335C68.5111 87.2097 68.2838 87.2978 68.0053 87.2978H64.5014C64.2229 87.2978 63.9956 87.2097 63.8194 87.0335C63.6432 86.8573 63.5551 86.63 63.5551 86.3515V74.9022C63.5551 74.6237 63.6432 74.3964 63.8194 74.2202C63.9956 74.044 64.2229 73.9559 64.5014 73.9559H68.0053C68.2838 73.9559 68.5111 74.044 68.6873 74.2202C68.8635 74.3964 68.9516 74.6237 68.9516 74.9022V78.0054H67.758V75.0045H64.7401V86.2492H67.758V81.6371H66.3343V80.6141H68.9516V86.3515Z" fill="black"/>
<path d="M79.7871 81.0489C79.7871 81.3273 79.6961 81.5575 79.5143 81.7394C79.3381 81.9156 79.1107 82.0037 78.8322 82.0037H75.6864V87.2978H74.5014V73.9559H78.8322C79.1107 73.9559 79.3381 74.044 79.5143 74.2202C79.6961 74.3964 79.7871 74.6237 79.7871 74.9022V81.0489ZM78.6021 80.9466V75.0045H75.6864V80.9466H78.6021Z" fill="black"/>
<path d="M87.3404 87.2978H86.0957L83.6149 80.1537L83.7768 79.915H85.8911V75.0045H82.8476V87.2978H81.6626V73.9559H86.1298C86.4083 73.9559 86.6356 74.044 86.8118 74.2202C86.988 74.3964 87.0761 74.6237 87.0761 74.9022V79.9662C87.0761 80.6084 86.6441 80.9295 85.7803 80.9295C85.695 80.9295 85.57 80.9267 85.4052 80.921C85.2403 80.9096 85.121 80.9039 85.0471 80.9039C85.8144 83.0295 86.5788 85.1608 87.3404 87.2978Z" fill="black"/>
<path d="M94.7487 86.3515C94.7487 86.63 94.6578 86.8573 94.4759 87.0335C94.2998 87.2097 94.0724 87.2978 93.7939 87.2978H90.0599C89.7814 87.2978 89.5541 87.2097 89.3779 87.0335C89.2017 86.8573 89.1136 86.63 89.1136 86.3515V74.9022C89.1136 74.6237 89.2017 74.3964 89.3779 74.2202C89.5541 74.044 89.7814 73.9559 90.0599 73.9559H93.7939C94.0724 73.9559 94.2998 74.044 94.4759 74.2202C94.6578 74.3964 94.7487 74.6237 94.7487 74.9022V86.3515ZM93.5637 86.2492V75.0045H90.2986V86.2492H93.5637Z" fill="black"/>
<path d="M102.097 73.9559L99.7871 87.3319H98.6703L96.36 73.9559H97.5365L99.1904 84.5783C99.1904 84.5783 99.2074 84.8681 99.2415 85.4479C99.2472 85.2489 99.2671 84.9591 99.3012 84.5783L100.955 73.9559H102.097Z" fill="black"/>
<path d="M104.962 87.2978H103.777V73.9559H104.962V87.2978Z" fill="black"/>
<path d="M112.686 84.8852C112.686 85.5899 112.453 86.1697 111.987 86.6243C111.526 87.0733 110.944 87.2978 110.239 87.2978H107.187V73.9559H110.239C110.949 73.9559 111.535 74.1833 111.995 74.6379C112.456 75.0869 112.686 75.6638 112.686 76.3685V84.8852ZM111.501 84.7658V76.4708C111.501 76.0332 111.361 75.6808 111.083 75.4137C110.81 75.1409 110.455 75.0045 110.017 75.0045H108.372V86.2492H109.949C110.41 86.2492 110.782 86.1185 111.066 85.8571C111.356 85.5899 111.501 85.2262 111.501 84.7658Z" fill="black"/>
<path d="M119.156 87.2978H114.774V73.9559H119.105V75.0045H115.959V79.9832H118.824V81.0489H115.959V86.2492H119.156V87.2978Z" fill="black"/>
<path d="M126.693 87.2978H125.448L122.967 80.1537L123.129 79.915H125.243V75.0045H122.2V87.2978H121.015V73.9559H125.482C125.761 73.9559 125.988 74.044 126.164 74.2202C126.34 74.3964 126.428 74.6237 126.428 74.9022V79.9662C126.428 80.6084 125.996 80.9295 125.132 80.9295C125.047 80.9295 124.922 80.9267 124.757 80.921C124.593 80.9096 124.473 80.9039 124.399 80.9039C125.167 83.0295 125.931 85.1608 126.693 87.2978Z" fill="black"/>
<path d="M307.518 71.5418C307.657 71.7397 307.815 71.9783 307.989 72.2576C308.164 72.537 308.333 72.8163 308.496 73.0957C308.659 73.3634 308.792 73.6136 308.897 73.8464L307.937 74.2655C307.82 74.0327 307.681 73.7766 307.518 73.4973C307.367 73.2179 307.204 72.9444 307.029 72.6767C306.866 72.3973 306.709 72.1529 306.558 71.9433L307.518 71.5418ZM309.753 71.0878C309.904 71.2857 310.067 71.5243 310.242 71.8037C310.416 72.0714 310.585 72.3507 310.748 72.6417C310.922 72.9211 311.068 73.1713 311.184 73.3925L310.224 73.8115C310.026 73.4507 309.799 73.0491 309.543 72.6068C309.287 72.1645 309.037 71.792 308.792 71.4894L309.753 71.0878ZM309.089 74.6845C309.031 74.8009 308.979 74.9348 308.932 75.0861C308.897 75.2257 308.862 75.3829 308.827 75.5575C308.734 76.0114 308.612 76.5178 308.461 77.0765C308.309 77.6352 308.123 78.2113 307.902 78.805C307.692 79.3869 307.442 79.9515 307.151 80.4985C306.872 81.0456 306.563 81.5461 306.226 82.0001C305.69 82.6752 305.091 83.3037 304.427 83.8857C303.776 84.4677 303.031 84.9915 302.193 85.4571C301.366 85.9226 300.418 86.3242 299.347 86.6618L298.159 85.3523C299.289 85.0729 300.266 84.7238 301.093 84.3047C301.931 83.8857 302.664 83.4143 303.293 82.8905C303.921 82.3551 304.48 81.7789 304.969 81.162C305.388 80.6266 305.749 80.0271 306.051 79.3637C306.365 78.6886 306.622 78.0135 306.819 77.3384C307.029 76.6516 307.174 76.0289 307.256 75.4702C307.081 75.4702 306.767 75.4702 306.313 75.4702C305.871 75.4702 305.341 75.4702 304.724 75.4702C304.107 75.4702 303.461 75.4702 302.786 75.4702C302.111 75.4702 301.465 75.4702 300.848 75.4702C300.243 75.4702 299.713 75.4702 299.259 75.4702C298.805 75.4702 298.491 75.4702 298.317 75.4702C297.979 75.4702 297.659 75.476 297.356 75.4876C297.065 75.4993 296.809 75.5109 296.588 75.5226V73.9687C296.751 73.9919 296.926 74.0152 297.112 74.0385C297.31 74.0501 297.513 74.0618 297.723 74.0734C297.944 74.0851 298.148 74.0909 298.334 74.0909C298.474 74.0909 298.718 74.0909 299.067 74.0909C299.428 74.0909 299.859 74.0909 300.359 74.0909C300.86 74.0909 301.39 74.0909 301.948 74.0909C302.507 74.0909 303.066 74.0909 303.624 74.0909C304.183 74.0909 304.701 74.0909 305.178 74.0909C305.667 74.0909 306.08 74.0909 306.418 74.0909C306.755 74.0909 306.977 74.0909 307.081 74.0909C307.221 74.0909 307.372 74.0851 307.535 74.0734C307.698 74.0618 307.861 74.0385 308.024 74.0036L309.089 74.6845Z" fill="black"/>
<path d="M325.327 72.7989C325.315 73.02 325.303 73.2586 325.292 73.5147C325.28 73.7591 325.274 74.0269 325.274 74.3178C325.274 74.5506 325.274 74.8475 325.274 75.2083C325.274 75.5691 325.274 75.9299 325.274 76.2908C325.274 76.64 325.274 76.9251 325.274 77.1463C325.274 78.1939 325.233 79.0843 325.152 79.8176C325.082 80.5509 324.972 81.1795 324.82 81.7032C324.681 82.2154 324.494 82.6693 324.262 83.0651C324.029 83.4608 323.755 83.845 323.441 84.2174C323.068 84.6597 322.638 85.0497 322.149 85.3872C321.672 85.7131 321.183 85.9867 320.682 86.2078C320.182 86.4406 319.716 86.6268 319.286 86.7665L318.151 85.5618C318.954 85.3639 319.71 85.0846 320.42 84.7238C321.142 84.3513 321.776 83.8566 322.324 83.2397C322.638 82.8789 322.888 82.5122 323.074 82.1397C323.272 81.7556 323.418 81.3308 323.511 80.8652C323.616 80.3996 323.685 79.8584 323.72 79.2414C323.755 78.6245 323.773 77.9029 323.773 77.0765C323.773 76.8437 323.773 76.5527 323.773 76.2035C323.773 75.8543 323.773 75.5051 323.773 75.1559C323.773 74.7951 323.773 74.5157 323.773 74.3178C323.773 74.0269 323.761 73.7591 323.738 73.5147C323.726 73.2586 323.709 73.02 323.685 72.7989H325.327ZM317.225 72.9385C317.214 73.1015 317.196 73.2994 317.173 73.5322C317.161 73.765 317.156 73.9861 317.156 74.1956C317.156 74.2771 317.156 74.4633 317.156 74.7543C317.156 75.0337 317.156 75.3712 317.156 75.767C317.156 76.1627 317.156 76.5818 317.156 77.0241C317.156 77.4664 317.156 77.8971 317.156 78.3161C317.156 78.7235 317.156 79.0785 317.156 79.3811C317.156 79.6838 317.156 79.8991 317.156 80.0271C317.156 80.2483 317.161 80.4869 317.173 80.743C317.196 80.9874 317.214 81.1911 317.225 81.3541H315.619C315.642 81.2144 315.66 81.0223 315.671 80.7779C315.695 80.5218 315.706 80.2657 315.706 80.0097C315.706 79.8933 315.706 79.6838 315.706 79.3811C315.706 79.0669 315.706 78.706 315.706 78.2986C315.706 77.8912 315.706 77.4664 315.706 77.0241C315.706 76.5818 315.706 76.1627 315.706 75.767C315.706 75.3712 315.706 75.0337 315.706 74.7543C315.706 74.4633 315.706 74.2771 315.706 74.1956C315.706 74.0443 315.701 73.8406 315.689 73.5845C315.677 73.3168 315.66 73.1015 315.637 72.9385H317.225Z" fill="black"/>
<path d="M337.67 75.994C337.752 76.1686 337.857 76.4305 337.985 76.7796C338.113 77.1172 338.247 77.478 338.386 77.8621C338.538 78.2463 338.672 78.6129 338.788 78.9621C338.904 79.2996 338.992 79.5674 339.05 79.7652L337.758 80.2192C337.711 80.0213 337.63 79.7536 337.513 79.416C337.409 79.0785 337.286 78.7177 337.147 78.3336C337.007 77.9378 336.867 77.5711 336.728 77.2336C336.588 76.896 336.477 76.6283 336.396 76.4305L337.67 75.994ZM343.991 76.9717C343.933 77.1463 343.88 77.3093 343.834 77.4606C343.799 77.6002 343.764 77.7283 343.729 77.8447C343.496 78.7991 343.182 79.7361 342.786 80.6557C342.39 81.5636 341.878 82.4133 341.25 83.2048C340.447 84.2291 339.539 85.0846 338.526 85.7713C337.525 86.4581 336.536 86.9877 335.558 87.3601L334.406 86.1904C335.081 85.9808 335.762 85.7015 336.448 85.3523C337.147 85.0031 337.804 84.5841 338.421 84.0952C339.05 83.6063 339.603 83.0651 340.08 82.4715C340.499 81.9593 340.871 81.3832 341.197 80.743C341.535 80.1028 341.814 79.4219 342.035 78.7002C342.257 77.9785 342.408 77.2452 342.489 76.5003L343.991 76.9717ZM333.62 76.8669C333.713 77.0648 333.829 77.3325 333.969 77.6701C334.109 78.0076 334.254 78.3801 334.406 78.7875C334.569 79.1832 334.72 79.5674 334.86 79.9398C335.011 80.3007 335.127 80.5917 335.209 80.8128L333.882 81.3017C333.812 81.0805 333.707 80.7837 333.567 80.4112C333.439 80.0271 333.294 79.6314 333.131 79.224C332.968 78.8166 332.811 78.4441 332.66 78.1066C332.52 77.769 332.409 77.5246 332.328 77.3733L333.62 76.8669Z" fill="black"/>
<path d="M354.659 72.9211C354.752 73.1306 354.88 73.4391 355.043 73.8464C355.206 74.2538 355.374 74.6961 355.549 75.1734C355.735 75.639 355.904 76.0871 356.055 76.5178C356.207 76.9368 356.317 77.2685 356.387 77.513L355.025 77.9844C354.955 77.7399 354.845 77.4082 354.694 76.9892C354.554 76.5585 354.397 76.1104 354.222 75.6448C354.059 75.1792 353.896 74.7427 353.733 74.3353C353.57 73.9163 353.431 73.5962 353.314 73.375L354.659 72.9211ZM362.411 74.0385C362.352 74.1898 362.294 74.3586 362.236 74.5448C362.19 74.7311 362.143 74.894 362.096 75.0337C361.933 75.7554 361.712 76.5003 361.433 77.2685C361.165 78.0367 360.845 78.7933 360.473 79.5383C360.1 80.2716 359.675 80.9525 359.198 81.581C358.605 82.3609 357.929 83.0826 357.173 83.746C356.428 84.3978 355.642 84.9682 354.816 85.4571C354.001 85.9459 353.18 86.3359 352.354 86.6268L351.149 85.4047C351.987 85.1602 352.82 84.8169 353.646 84.3746C354.472 83.9323 355.258 83.4085 356.003 82.8032C356.76 82.1863 357.429 81.5054 358.011 80.7604C358.476 80.1784 358.896 79.4975 359.268 78.7177C359.64 77.9262 359.961 77.0939 360.228 76.2209C360.496 75.3363 360.688 74.4575 360.804 73.5845L362.411 74.0385ZM349.787 73.9687C349.904 74.2131 350.049 74.5448 350.224 74.9639C350.399 75.3712 350.585 75.8194 350.783 76.3082C350.981 76.7855 351.161 77.2452 351.324 77.6875C351.498 78.1182 351.638 78.4732 351.743 78.7526L350.364 79.2589C350.294 79.0494 350.195 78.7759 350.067 78.4383C349.95 78.0891 349.811 77.7225 349.648 77.3384C349.496 76.9426 349.339 76.5527 349.176 76.1686C349.025 75.7845 348.88 75.4469 348.74 75.1559C348.6 74.8533 348.49 74.6263 348.408 74.475L349.787 73.9687Z" fill="black"/>
<path d="M380.412 74.248C380.342 74.3295 380.26 74.4284 380.167 74.5448C380.086 74.6612 380.01 74.7718 379.94 74.8766C379.719 75.2723 379.387 75.7612 378.945 76.3432C378.514 76.9135 378.014 77.5013 377.443 78.1066C376.873 78.7002 376.256 79.2298 375.593 79.6954L374.44 78.77C374.848 78.5372 375.243 78.2579 375.628 77.932C376.023 77.5944 376.39 77.2452 376.728 76.8844C377.077 76.5119 377.379 76.1511 377.635 75.8019C377.903 75.4411 378.113 75.1268 378.264 74.8591C378.078 74.8591 377.775 74.8591 377.356 74.8591C376.949 74.8591 376.46 74.8591 375.889 74.8591C375.331 74.8591 374.731 74.8591 374.091 74.8591C373.451 74.8591 372.817 74.8591 372.188 74.8591C371.56 74.8591 370.972 74.8591 370.425 74.8591C369.878 74.8591 369.418 74.8591 369.045 74.8591C368.673 74.8591 368.428 74.8591 368.312 74.8591C367.986 74.8591 367.66 74.8707 367.334 74.894C367.008 74.9057 366.671 74.9289 366.322 74.9639V73.375C366.624 73.4216 366.95 73.4623 367.299 73.4973C367.649 73.5205 367.986 73.5322 368.312 73.5322C368.428 73.5322 368.679 73.5322 369.063 73.5322C369.447 73.5322 369.912 73.5322 370.46 73.5322C371.018 73.5322 371.624 73.5322 372.275 73.5322C372.927 73.5322 373.573 73.5322 374.213 73.5322C374.865 73.5322 375.476 73.5322 376.047 73.5322C376.617 73.5322 377.1 73.5322 377.496 73.5322C377.903 73.5322 378.183 73.5322 378.334 73.5322C378.45 73.5322 378.584 73.5322 378.735 73.5322C378.898 73.5205 379.055 73.5031 379.207 73.4798C379.358 73.4565 379.475 73.4391 379.556 73.4274L380.412 74.248ZM373.445 76.5527C373.445 77.4955 373.416 78.3801 373.358 79.2065C373.3 80.0329 373.183 80.807 373.009 81.5287C372.834 82.2503 372.566 82.9196 372.206 83.5365C371.856 84.1418 371.385 84.7121 370.791 85.2475C370.198 85.7713 369.459 86.2544 368.574 86.6967L367.282 85.6491C367.526 85.5676 367.788 85.4629 368.068 85.3348C368.347 85.1952 368.609 85.038 368.853 84.8634C369.54 84.456 370.087 83.9963 370.494 83.4841C370.902 82.972 371.204 82.4191 371.402 81.8255C371.612 81.2202 371.752 80.5858 371.821 79.9224C371.903 79.2473 371.944 78.5489 371.944 77.8272C371.944 77.6061 371.938 77.3966 371.926 77.1987C371.926 77.0008 371.909 76.7855 371.874 76.5527H373.445Z" fill="black"/>
<path d="M384.165 74.0909C384.515 74.1025 384.811 74.1142 385.056 74.1258C385.3 74.1258 385.521 74.1258 385.719 74.1258C385.859 74.1258 386.115 74.1258 386.487 74.1258C386.86 74.1258 387.308 74.1258 387.832 74.1258C388.367 74.1258 388.938 74.1258 389.543 74.1258C390.148 74.1258 390.748 74.1258 391.341 74.1258C391.946 74.1258 392.511 74.1258 393.035 74.1258C393.559 74.1258 394.001 74.1258 394.362 74.1258C394.723 74.1258 394.967 74.1258 395.095 74.1258C395.281 74.1258 395.514 74.1258 395.793 74.1258C396.084 74.1142 396.364 74.1025 396.631 74.0909C396.62 74.3004 396.608 74.5274 396.597 74.7718C396.597 75.0046 396.597 75.2316 396.597 75.4527C396.597 75.5691 396.597 75.8019 396.597 76.1511C396.597 76.4887 396.597 76.9019 396.597 77.3907C396.597 77.8796 396.597 78.4092 396.597 78.9796C396.597 79.5383 396.597 80.097 396.597 80.6557C396.597 81.2144 396.597 81.7323 396.597 82.2096C396.597 82.6868 396.597 83.0942 396.597 83.4317C396.597 83.7577 396.597 83.9672 396.597 84.0603C396.597 84.1883 396.597 84.3629 396.597 84.5841C396.597 84.8052 396.597 85.0264 396.597 85.2475C396.608 85.4687 396.614 85.6666 396.614 85.8412C396.626 86.0041 396.631 86.1147 396.631 86.1729H395.13C395.13 86.1031 395.13 85.9634 395.13 85.7539C395.142 85.5327 395.147 85.2883 395.147 85.0206C395.159 84.7412 395.165 84.4793 395.165 84.2349C395.165 84.1534 395.165 83.9323 395.165 83.5714C395.165 83.2106 395.165 82.7683 395.165 82.2445C395.165 81.7091 395.165 81.1387 395.165 80.5335C395.165 79.9166 395.165 79.3171 395.165 78.7351C395.165 78.1415 395.165 77.6002 395.165 77.1114C395.165 76.6225 395.165 76.2326 395.165 75.9416C395.165 75.6506 395.165 75.5051 395.165 75.5051H385.614C385.614 75.5051 385.614 75.6506 385.614 75.9416C385.614 76.2209 385.614 76.6051 385.614 77.0939C385.614 77.5828 385.614 78.124 385.614 78.7177C385.614 79.2996 385.614 79.8933 385.614 80.4985C385.614 81.1038 385.614 81.6741 385.614 82.2096C385.614 82.7334 385.614 83.1757 385.614 83.5365C385.614 83.8973 385.614 84.1301 385.614 84.2349C385.614 84.3862 385.614 84.5608 385.614 84.7587C385.614 84.9565 385.614 85.1544 385.614 85.3523C385.626 85.5385 385.632 85.7073 385.632 85.8586C385.644 86.0099 385.649 86.1147 385.649 86.1729H384.148C384.148 86.1147 384.148 86.0041 384.148 85.8412C384.159 85.6666 384.165 85.4687 384.165 85.2475C384.177 85.0264 384.183 84.811 384.183 84.6015C384.183 84.3804 384.183 84.1941 384.183 84.0428C384.183 83.9497 384.183 83.7344 384.183 83.3968C384.183 83.0593 384.183 82.6461 384.183 82.1572C384.183 81.6683 384.183 81.1445 384.183 80.5858C384.183 80.0155 384.183 79.451 384.183 78.8923C384.183 78.3219 384.183 77.7981 384.183 77.3209C384.183 76.832 384.183 76.4246 384.183 76.0987C384.183 75.7612 384.183 75.5458 384.183 75.4527C384.183 75.2432 384.183 75.0162 384.183 74.7718C384.183 74.5274 384.177 74.3004 384.165 74.0909ZM395.724 83.7984V85.1602H384.934V83.7984H395.724Z" fill="black"/>
<path d="M400.857 78.4907C401.031 78.5023 401.247 78.5198 401.503 78.5431C401.759 78.5547 402.038 78.5663 402.341 78.578C402.655 78.578 402.969 78.578 403.284 78.578C403.47 78.578 403.755 78.578 404.139 78.578C404.535 78.578 404.995 78.578 405.518 78.578C406.042 78.578 406.595 78.578 407.177 78.578C407.771 78.578 408.358 78.578 408.94 78.578C409.534 78.578 410.093 78.578 410.617 78.578C411.152 78.578 411.612 78.578 411.996 78.578C412.38 78.578 412.665 78.578 412.851 78.578C413.294 78.578 413.672 78.5663 413.986 78.5431C414.301 78.5198 414.551 78.5023 414.737 78.4907V80.2017C414.562 80.1901 414.301 80.1726 413.951 80.1493C413.614 80.1261 413.253 80.1144 412.869 80.1144C412.683 80.1144 412.392 80.1144 411.996 80.1144C411.6 80.1144 411.14 80.1144 410.617 80.1144C410.104 80.1144 409.552 80.1144 408.958 80.1144C408.364 80.1144 407.771 80.1144 407.177 80.1144C406.595 80.1144 406.042 80.1144 405.518 80.1144C405.006 80.1144 404.552 80.1144 404.157 80.1144C403.761 80.1144 403.47 80.1144 403.284 80.1144C402.806 80.1144 402.352 80.1261 401.922 80.1493C401.491 80.161 401.136 80.1784 400.857 80.2017V78.4907Z" fill="black"/>
<path d="M215.127 32.2053L222.609 16.1927L215.127 19.1106L208.891 33.591L215.127 32.2053Z" fill="#FFA600"/>
<path fill-rule="evenodd" clip-rule="evenodd" d="M175.843 40.9351L180.457 33.591L193.302 27.8404L198.291 25.8578L215.127 19.1106L208.891 33.591L188.937 38.0252L182.078 39.5494L175.843 40.9351ZM222.609 16.1927L215.127 32.2053L229.513 27.8404L241.939 8.51018L222.609 16.1927ZM223.901 36.5702L211.743 39.5494L185.819 95.808L223.901 36.5702Z" fill="#FFA600"/>
<path d="M229.513 27.8404L215.127 32.2053L211.743 39.5494L223.901 36.5702L229.513 27.8404Z" fill="#FFA600"/>
<path d="M194.55 20.5774L182.39 13.5572L182.39 27.5976L194.55 20.5774Z" fill="#FFA600"/>
</svg>
