<svg width="698" height="161" viewBox="0 0 698 161" fill="none" xmlns="http://www.w3.org/2000/svg">
<path d="M8.3498 103.329V110.635H51.1425V103.329H8.3498Z" fill="#FFA600"/>
<path d="M10.4372 76.192V83.4981H53.23V76.192H10.4372Z" fill="#FFA600"/>
<path d="M55.3174 57.4049H53.23L55.0855 59.4924L55.3174 57.4049Z" fill="#FFA600"/>
<path fill-rule="evenodd" clip-rule="evenodd" d="M13.5684 50.0989H5.21862L0 110.635H8.3498V103.329L10.4372 83.4981V76.192L12.5247 57.4049H53.23H55.3174L55.0855 59.4924L53.23 76.192V83.4981L51.1425 103.329V110.635H58.4486L62.6235 57.4049L56.3611 50.0989H13.5684Z" fill="#FFA600"/>
<path d="M70.0574 110.635L74.2323 50.4326H80.9956L76.8207 103.871H130.176V110.635H70.0574Z" fill="black"/>
<path d="M135.879 110.635L140.053 50.5161H146.9L142.725 110.635H135.879Z" fill="black"/>
<path d="M162.002 110.635L166.177 57.2794H154.07V50.5161H214.189V57.2794H172.941L168.766 110.635H162.002Z" fill="black"/>
<path d="M215.841 110.635V101.366L272.453 57.2794H220.016V50.5161H280.134V59.7844L223.523 103.871H275.959V110.635H215.841Z" fill="black"/>
<path fill-rule="evenodd" clip-rule="evenodd" d="M435.603 93.5179L448.128 110.217H457.062V110.134L444.496 93.5179C444.43 93.4311 438.54 93.4817 435.603 93.5179ZM431.345 87.84H406.212L404.125 110.217H397.361L401.536 50.1824H451.635C453.472 50.1824 455.142 50.6555 456.645 51.6018C458.204 52.4925 459.428 53.6893 460.319 55.1923C461.209 56.6952 461.655 58.3652 461.655 60.2021L459.567 77.8202C459.567 79.6572 459.122 81.3271 458.231 82.8301C457.341 84.333 456.116 85.5577 454.557 86.504C453.054 87.3946 451.385 87.84 449.548 87.84H440.202H431.345ZM449.548 80.9931H409.469C408.578 80.9931 407.799 80.687 407.131 80.0747C406.518 79.4623 406.212 78.7109 406.212 77.8202L408.3 60.2021C408.3 59.3115 408.606 58.56 409.218 57.9477C409.886 57.2797 410.665 56.9457 411.556 56.9457H451.635C452.526 56.9457 453.277 57.2797 453.889 57.9477C454.557 58.56 454.891 59.3115 454.891 60.2021L452.804 77.8202C452.804 78.7109 452.47 79.4623 451.802 80.0747C451.19 80.687 450.438 80.9931 449.548 80.9931Z" fill="black"/>
<path fill-rule="evenodd" clip-rule="evenodd" d="M504.506 93.5179L517.03 110.217H525.965V110.134L513.398 93.5179H504.506ZM500.247 87.84H475.114L473.027 110.217H466.263L470.438 50.1824H520.537C522.374 50.1824 524.044 50.6555 525.547 51.6018C527.106 52.4925 528.33 53.6893 529.221 55.1923C530.112 56.6952 530.557 58.3652 530.557 60.2021L528.469 77.8202C528.469 79.6572 528.024 81.3271 527.133 82.8301C526.243 84.333 525.018 85.5577 523.46 86.504C521.957 87.3946 520.287 87.84 518.45 87.84H509.104H500.247ZM518.45 80.9931H478.371C477.48 80.9931 476.701 80.687 476.033 80.0747C475.42 79.4623 475.114 78.7109 475.114 77.8202L477.202 60.2021C477.202 59.3115 477.508 58.56 478.12 57.9477C478.788 57.2797 479.567 56.9457 480.458 56.9457H520.537C521.428 56.9457 522.179 57.2797 522.792 57.9477C523.46 58.56 523.794 59.3115 523.794 60.2021L521.706 77.8202C521.706 78.7109 521.372 79.4623 520.704 80.0747C520.092 80.687 519.34 80.9931 518.45 80.9931Z" fill="black"/>
<path fill-rule="evenodd" clip-rule="evenodd" d="M545.018 110.217C543.181 110.217 541.484 109.772 539.925 108.881C538.422 107.991 537.225 106.794 536.335 105.291C535.444 103.732 534.999 102.035 534.999 100.198L536.673 84.1244L540.509 80.9931L543.436 84.1244L541.762 100.198C541.762 101.088 542.068 101.868 542.68 102.536C543.348 103.148 544.128 103.454 545.018 103.454H585.097C585.988 103.454 586.74 103.148 587.352 102.536C588.02 101.868 588.354 101.088 588.354 100.198L589.919 85.1681L593.164 87.84L596.635 85.6306L595.117 100.198C595.117 102.035 594.672 103.732 593.781 105.291C592.89 106.794 591.666 107.991 590.107 108.881C588.604 109.772 586.934 110.217 585.097 110.217H545.018ZM597.205 80.1582L599.292 60.1186C599.292 58.2817 598.847 56.6117 597.956 55.1088C597.065 53.5501 595.841 52.3255 594.282 51.4348C592.779 50.5442 591.109 50.0989 589.272 50.0989H549.193C547.356 50.0989 545.658 50.5442 544.1 51.4348C542.597 52.3255 541.4 53.5501 540.509 55.1088C539.619 56.6117 539.173 58.2817 539.173 60.1186L537.268 78.4121L540.509 75.7746L544.031 78.4121L545.937 60.1186C545.937 59.228 546.243 58.4765 546.855 57.8642C547.523 57.1962 548.303 56.8622 549.193 56.8622H589.272C590.163 56.8622 590.914 57.1962 591.527 57.8642C592.195 58.4765 592.529 59.228 592.529 60.1186L590.441 80.1582L593.831 83.0806L597.205 80.1582Z" fill="black"/>
<path fill-rule="evenodd" clip-rule="evenodd" d="M618.661 98.3607L604.451 50.0989H611.631L621.865 86.838L618.661 98.3607ZM622.152 110.217H627.997L650.875 58.8662L654.967 50.0989H646.784L625.075 98.3607L622.152 110.217ZM653.71 68.8859L657.758 60.1186L668.41 98.3607L690.036 50.0989H697.384L671.332 110.217H665.404L653.71 68.8859Z" fill="black"/>
<path d="M360.085 53.9061L372.61 27.1038L360.085 31.9879L349.648 56.2255L360.085 53.9061Z" fill="#FFA600"/>
<path fill-rule="evenodd" clip-rule="evenodd" d="M294.33 68.5183L302.054 56.2255L323.555 46.6L331.904 43.2815L360.085 31.9879L349.648 56.2255L316.249 63.6475L304.768 66.1989L294.33 68.5183ZM372.61 27.1038L360.085 53.9061L384.165 46.6L404.965 14.2446L372.61 27.1038ZM374.772 61.2122L354.421 66.1989L311.03 160.366L374.772 61.2122Z" fill="#FFA600"/>
<path d="M384.165 46.6L360.085 53.9061L354.421 66.1989L374.772 61.2122L384.165 46.6Z" fill="#FFA600"/>
</svg>
