<svg width="111" height="161" viewBox="0 0 111 161" fill="none" xmlns="http://www.w3.org/2000/svg">
<path d="M66.085 53.9061L78.6097 27.1038L66.085 31.9879L55.6477 56.2255L66.085 53.9061Z" fill="#FFA600"/>
<path fill-rule="evenodd" clip-rule="evenodd" d="M0.330322 68.5183L8.05409 56.2255L29.5546 46.6L37.9044 43.2815L66.085 31.9879L55.6477 56.2255L22.2485 63.6475L10.7676 66.1989L0.330322 68.5183ZM78.6097 27.1038L66.085 53.9061L90.1652 46.6L110.965 14.2446L78.6097 27.1038ZM80.7717 61.2122L60.4207 66.1989L17.0299 160.366L80.7717 61.2122Z" fill="#FFA600"/>
<path d="M90.1652 46.6L66.085 53.9061L60.4207 66.1989L80.7717 61.2122L90.1652 46.6Z" fill="#FFA600"/>
<path d="M31.6421 34.4429L11.2895 22.6923L11.2895 46.1935L31.6421 34.4429Z" fill="#FFA600"/>
</svg>
